# Made in Blockbench 3.5.4
mtllib lingot-or.mtl
o cube
v 0.125 -0.484375 0.25
v 0.125 -0.484375 -0.25
v 0.125 -0.5 0.25
v 0.125 -0.5 -0.25
v -0.125 -0.484375 -0.25
v -0.125 -0.484375 0.25
v -0.125 -0.5 -0.25
v -0.125 -0.5 0.25
vt 0.004995 0.995005
vt 0.004995 0.9937549999999999
vt 0.044995 0.995005
vt 0.004995 0.9937549999999999
vt 0.044995 0.9937549999999999
vt 0.044995 0.995005
vt 0.004995 0.995005
vt 0.004995 0.9937549999999999
vt 0.044995 0.995005
vt 0.004995 0.9937549999999999
vt 0.044995 0.9937549999999999
vt 0.044995 0.995005
vt 0.04 0.965
vt 0.04 0.925
vt 0.06 0.965
vt 0.04 0.925
vt 0.06 0.925
vt 0.06 0.965
vt 0.04 0.965
vt 0.04 0.925
vt 0.06 0.965
vt 0.04 0.925
vt 0.06 0.925
vt 0.06 0.965
vt 0.01 0.96
vt 0.01 0.95875
vt 0.029994999999999997 0.96
vt 0.01 0.95875
vt 0.029994999999999997 0.95875
vt 0.029994999999999997 0.96
vt 0.01 0.96
vt 0.01 0.95875
vt 0.029994999999999997 0.96
vt 0.01 0.95875
vt 0.029994999999999997 0.95875
vt 0.029994999999999997 0.96
vn 1 0 0
vn 1 0 0
vn 1 0 0
vn 1 0 0
vn 1 0 0
vn 1 0 0
vn -1 0 0
vn -1 0 0
vn -1 0 0
vn -1 0 0
vn -1 0 0
vn -1 0 0
vn 0 1 0
vn 0 1 0
vn 0 1 0
vn 0 1 0
vn 0 1 0
vn 0 1 0
vn 0 -1 0
vn 0 -1 0
vn 0 -1 0
vn 0 -1 0
vn 0 -1 0
vn 0 -1 0
vn 0 0 1
vn 0 0 1
vn 0 0 1
vn 0 0 1
vn 0 0 1
vn 0 0 1
vn 0 0 -1
vn 0 0 -1
vn 0 0 -1
vn 0 0 -1
vn 0 0 -1
vn 0 0 -1
usemtl 0
f 1/1/1 3/2/2 2/3/3
f 3/4/4 4/5/5 2/6/6
usemtl 0
f 5/7/7 7/8/8 6/9/9
f 7/10/10 8/11/11 6/12/12
usemtl 0
f 5/13/13 6/14/14 2/15/15
f 6/16/16 1/17/17 2/18/18
usemtl 0
f 8/19/19 7/20/20 3/21/21
f 7/22/22 4/23/23 3/24/24
usemtl 0
f 6/25/25 8/26/26 1/27/27
f 8/28/28 3/29/29 1/30/30
usemtl 0
f 2/31/31 4/32/32 5/33/33
f 4/34/34 7/35/35 5/36/36
o cube
v 0.07968750000000002 -0.3734375 0.25
v 0.07968750000000002 -0.3734375 -0.25
v 0.07968750000000002 -0.484375 0.25
v 0.07968750000000002 -0.484375 -0.25
v -0.07968750000000002 -0.3734375 -0.25
v -0.07968750000000002 -0.3734375 0.25
v -0.07968750000000002 -0.484375 -0.25
v -0.07968750000000002 -0.484375 0.25
vt 0.015 0.98
vt 0.015 0.94
vt 0.02775 0.98
vt 0.015 0.94
vt 0.02775 0.94
vt 0.02775 0.98
vt 0.015 0.98
vt 0.015 0.94
vt 0.02775 0.98
vt 0.015 0.94
vt 0.02775 0.94
vt 0.02775 0.98
vt 0.044995 0.97
vt 0.044995 0.9299999999999999
vt 0.057745 0.97
vt 0.044995 0.9299999999999999
vt 0.057745 0.9299999999999999
vt 0.057745 0.97
vt 0 1
vt 0 0.5
vt 0.159375 1
vt 0 0.5
vt 0.159375 0.5
vt 0.159375 1
vt 0.015 0.97
vt 0.015 0.96113
vt 0.02775 0.97
vt 0.015 0.96113
vt 0.02775 0.96113
vt 0.02775 0.97
vt 0.015 0.97
vt 0.015 0.96113
vt 0.02775 0.97
vt 0.015 0.96113
vt 0.02775 0.96113
vt 0.02775 0.97
vn 1 0 0
vn 1 0 0
vn 1 0 0
vn 1 0 0
vn 1 0 0
vn 1 0 0
vn -1 0 0
vn -1 0 0
vn -1 0 0
vn -1 0 0
vn -1 0 0
vn -1 0 0
vn 0 1 0
vn 0 1 0
vn 0 1 0
vn 0 1 0
vn 0 1 0
vn 0 1 0
vn 0 -1 0
vn 0 -1 0
vn 0 -1 0
vn 0 -1 0
vn 0 -1 0
vn 0 -1 0
vn 0 0 1
vn 0 0 1
vn 0 0 1
vn 0 0 1
vn 0 0 1
vn 0 0 1
vn 0 0 -1
vn 0 0 -1
vn 0 0 -1
vn 0 0 -1
vn 0 0 -1
vn 0 0 -1
usemtl 0
f 9/37/37 11/38/38 10/39/39
f 11/40/40 12/41/41 10/42/42
usemtl 0
f 13/43/43 15/44/44 14/45/45
f 15/46/46 16/47/47 14/48/48
usemtl 0
f 13/49/49 14/50/50 10/51/51
f 14/52/52 9/53/53 10/54/54
usemtl none
f 16/55/55 15/56/56 11/57/57
f 15/58/58 12/59/59 11/60/60
usemtl 0
f 14/61/61 16/62/62 9/63/63
f 16/64/64 11/65/65 9/66/66
usemtl 0
f 10/67/67 12/68/68 13/69/69
f 12/70/70 15/71/71 13/72/72
o cube
v 0.07890081683902923 -0.37391308206678336 0.24843749999999998
v 0.07890081683902923 -0.37391308206678336 -0.24843749999999998
v 0.12434447443238364 -0.48362377655249866 0.24843749999999998
v 0.12434447443238364 -0.48362377655249866 -0.24843749999999998
v 0.039924649061209384 -0.39005753936968557 -0.24843749999999998
v 0.039924649061209384 -0.39005753936968557 0.24843749999999998
v 0.08536830665456378 -0.49976823385540087 -0.24843749999999998
v 0.08536830665456378 -0.49976823385540087 0.24843749999999998
vt 0.004995 0.995005
vt 0.004995 0.95529
vt 0.014485 0.995005
vt 0.004995 0.95529
vt 0.014485 0.95529
vt 0.014485 0.995005
vt 0.0152 1
vt 0 1
vt 0.0152 0.9946
vt 0 1
vt 0 0.9946
vt 0.0152 0.9946
vt 0.0152 1
vt 0 1
vt 0.0152 0.9946
vt 0 1
vt 0 0.9946
vt 0.0152 0.9946
vt 0.496875 1
vt 0 1
vt 0.496875 0.9578125
vt 0 1
vt 0 0.9578125
vt 0.496875 0.9578125
vt 0.01 0.985
vt 0.01 0.97551
vt 0.013365 0.985
vt 0.01 0.97551
vt 0.013365 0.97551
vt 0.013365 0.985
vt 0.07 0.97
vt 0.07 0.960515
vt 0.07336000000000001 0.97
vt 0.07 0.960515
vt 0.07336000000000001 0.960515
vt 0.07336000000000001 0.97
vn 0.9238795325112867 0.3826834323650897 0
vn 0.9238795325112867 0.3826834323650897 0
vn 0.9238795325112867 0.3826834323650897 0
vn 0.9238795325112867 0.3826834323650897 0
vn 0.9238795325112867 0.3826834323650897 0
vn 0.9238795325112867 0.3826834323650897 0
vn -0.9238795325112867 -0.3826834323650897 0
vn -0.9238795325112867 -0.3826834323650897 0
vn -0.9238795325112867 -0.3826834323650897 0
vn -0.9238795325112867 -0.3826834323650897 0
vn -0.9238795325112867 -0.3826834323650897 0
vn -0.9238795325112867 -0.3826834323650897 0
vn -0.3826834323650897 0.9238795325112867 0
vn -0.3826834323650897 0.9238795325112867 0
vn -0.3826834323650897 0.9238795325112867 0
vn -0.3826834323650897 0.9238795325112867 0
vn -0.3826834323650897 0.9238795325112867 0
vn -0.3826834323650897 0.9238795325112867 0
vn 0.3826834323650897 -0.9238795325112867 0
vn 0.3826834323650897 -0.9238795325112867 0
vn 0.3826834323650897 -0.9238795325112867 0
vn 0.3826834323650897 -0.9238795325112867 0
vn 0.3826834323650897 -0.9238795325112867 0
vn 0.3826834323650897 -0.9238795325112867 0
vn 0 0 1
vn 0 0 1
vn 0 0 1
vn 0 0 1
vn 0 0 1
vn 0 0 1
vn 0 0 -1
vn 0 0 -1
vn 0 0 -1
vn 0 0 -1
vn 0 0 -1
vn 0 0 -1
usemtl 0
f 17/73/73 19/74/74 18/75/75
f 19/76/76 20/77/77 18/78/78
usemtl none
f 21/79/79 23/80/80 22/81/81
f 23/82/82 24/83/83 22/84/84
usemtl none
f 21/85/85 22/86/86 18/87/87
f 22/88/88 17/89/89 18/90/90
usemtl none
f 24/91/91 23/92/92 19/93/93
f 23/94/94 20/95/95 19/96/96
usemtl 0
f 22/97/97 24/98/98 17/99/99
f 24/100/100 19/101/101 17/102/102
usemtl 0
f 18/103/103 20/104/104 21/105/105
f 20/106/106 23/107/107 21/108/108
o cube
v -0.03992455526079728 -0.39005775467476783 0.24843749999999998
v -0.03992455526079728 -0.39005775467476783 -0.24843749999999998
v -0.08536821285415169 -0.49976844916048313 0.24843749999999998
v -0.08536821285415169 -0.49976844916048313 -0.24843749999999998
v -0.07890072303861717 -0.37391329737186557 -0.24843749999999998
v -0.07890072303861717 -0.37391329737186557 0.24843749999999998
v -0.12434438063197159 -0.48362399185758087 -0.24843749999999998
v -0.12434438063197159 -0.48362399185758087 0.24843749999999998
vt 0.0152 1
vt 0 1
vt 0.0152 0.9359999999999999
vt 0 1
vt 0 0.9359999999999999
vt 0.0152 0.9359999999999999
vt 0.015 0.97
vt 0.015 0.9605049999999999
vt 0.05474999999999999 0.97
vt 0.015 0.9605049999999999
vt 0.05474999999999999 0.9605049999999999
vt 0.05474999999999999 0.97
vt 0.0152 1
vt 0 1
vt 0.0152 0.9359999999999999
vt 0 1
vt 0 0.9359999999999999
vt 0.0152 0.9359999999999999
vt 0.496875 1
vt 0 1
vt 0.496875 0.9578125
vt 0 1
vt 0 0.9578125
vt 0.496875 0.9578125
vt 0.01 0.975
vt 0.01 0.96551
vt 0.013365 0.975
vt 0.01 0.96551
vt 0.013365 0.96551
vt 0.013365 0.975
vt 0.01 0.96
vt 0.01 0.95051
vt 0.013365 0.96
vt 0.01 0.95051
vt 0.013365 0.95051
vt 0.013365 0.96
vn 0.9238795325112867 -0.3826834323650897 0
vn 0.9238795325112867 -0.3826834323650897 0
vn 0.9238795325112867 -0.3826834323650897 0
vn 0.9238795325112867 -0.3826834323650897 0
vn 0.9238795325112867 -0.3826834323650897 0
vn 0.9238795325112867 -0.3826834323650897 0
vn -0.9238795325112867 0.3826834323650897 0
vn -0.9238795325112867 0.3826834323650897 0
vn -0.9238795325112867 0.3826834323650897 0
vn -0.9238795325112867 0.3826834323650897 0
vn -0.9238795325112867 0.3826834323650897 0
vn -0.9238795325112867 0.3826834323650897 0
vn 0.3826834323650897 0.9238795325112867 0
vn 0.3826834323650897 0.9238795325112867 0
vn 0.3826834323650897 0.9238795325112867 0
vn 0.3826834323650897 0.9238795325112867 0
vn 0.3826834323650897 0.9238795325112867 0
vn 0.3826834323650897 0.9238795325112867 0
vn -0.3826834323650897 -0.9238795325112867 0
vn -0.3826834323650897 -0.9238795325112867 0
vn -0.3826834323650897 -0.9238795325112867 0
vn -0.3826834323650897 -0.9238795325112867 0
vn -0.3826834323650897 -0.9238795325112867 0
vn -0.3826834323650897 -0.9238795325112867 0
vn 0 0 1
vn 0 0 1
vn 0 0 1
vn 0 0 1
vn 0 0 1
vn 0 0 1
vn 0 0 -1
vn 0 0 -1
vn 0 0 -1
vn 0 0 -1
vn 0 0 -1
vn 0 0 -1
usemtl none
f 25/109/109 27/110/110 26/111/111
f 27/112/112 28/113/113 26/114/114
usemtl 0
f 29/115/115 31/116/116 30/117/117
f 31/118/118 32/119/119 30/120/120
usemtl none
f 29/121/121 30/122/122 26/123/123
f 30/124/124 25/125/125 26/126/126
usemtl none
f 32/127/127 31/128/128 27/129/129
f 31/130/130 28/131/131 27/132/132
usemtl 0
f 30/133/133 32/134/134 25/135/135
f 32/136/136 27/137/137 25/138/138
usemtl 0
f 26/139/139 28/140/140 29/141/141
f 28/142/142 31/143/143 29/144/144
o texte
v 0.07343750000000004 -0.3718125 0.1875
v 0.07343750000000004 -0.3718125 -0.1875
v 0.07343750000000004 -0.371875 0.1875
v 0.07343750000000004 -0.371875 -0.1875
v -0.07499999999999996 -0.3718125 -0.1875
v -0.07499999999999996 -0.3718125 0.1875
v -0.07499999999999996 -0.371875 -0.1875
v -0.07499999999999996 -0.371875 0.1875
vt 0 1
vt 0 0.9996
vt 0.048 1
vt 0 0.9996
vt 0.048 0.9996
vt 0.048 1
vt 0 1
vt 0 0.9996
vt 0.048 1
vt 0 0.9996
vt 0.048 0.9996
vt 0.048 1
vt 0.27 1
vt 0.27 0.04006249999999989
vt 0.7399375 1
vt 0.27 0.04006249999999989
vt 0.7399375 0.04006249999999989
vt 0.7399375 1
vt 0.27 0.04006249999999989
vt 0.27 1
vt 0.7399375 0.04006249999999989
vt 0.27 1
vt 0.7399375 1
vt 0.7399375 0.04006249999999989
vt 0 1
vt 0 0.9996
vt 0.019 1
vt 0 0.9996
vt 0.019 0.9996
vt 0.019 1
vt 0 1
vt 0 0.9996
vt 0.019 1
vt 0 0.9996
vt 0.019 0.9996
vt 0.019 1
vn 1 0 0
vn 1 0 0
vn 1 0 0
vn 1 0 0
vn 1 0 0
vn 1 0 0
vn -1 0 0
vn -1 0 0
vn -1 0 0
vn -1 0 0
vn -1 0 0
vn -1 0 0
vn 0 1 0
vn 0 1 0
vn 0 1 0
vn 0 1 0
vn 0 1 0
vn 0 1 0
vn 0 -1 0
vn 0 -1 0
vn 0 -1 0
vn 0 -1 0
vn 0 -1 0
vn 0 -1 0
vn 0 0 1
vn 0 0 1
vn 0 0 1
vn 0 0 1
vn 0 0 1
vn 0 0 1
vn 0 0 -1
vn 0 0 -1
vn 0 0 -1
vn 0 0 -1
vn 0 0 -1
vn 0 0 -1
usemtl none
f 33/145/145 35/146/146 34/147/147
f 35/148/148 36/149/149 34/150/150
usemtl none
f 37/151/151 39/152/152 38/153/153
f 39/154/154 40/155/155 38/156/156
usemtl 0
f 37/157/157 38/158/158 34/159/159
f 38/160/160 33/161/161 34/162/162
usemtl 0
f 40/163/163 39/164/164 35/165/165
f 39/166/166 36/167/167 35/168/168
usemtl none
f 38/169/169 40/170/170 33/171/171
f 40/172/172 35/173/173 33/174/174
usemtl none
f 34/175/175 36/176/176 37/177/177
f 36/178/178 39/179/179 37/180/180
